<mxfile host="app.diagrams.net" modified="2022-03-09T11:43:07.337Z" agent="5.0 (Macintosh; Intel Mac OS X 10_15_7) AppleWebKit/537.36 (KHTML, like Gecko) Chrome/99.0.4844.51 Safari/537.36" etag="LVd5Z10Q8kaGeHHQA8Q9" version="17.0.0" type="github">
  <diagram id="qwIO0Igh3g6Gr3oWDybw" name="Page-1">
    <mxGraphModel dx="1186" dy="719" grid="1" gridSize="10" guides="1" tooltips="1" connect="1" arrows="1" fold="1" page="1" pageScale="1" pageWidth="827" pageHeight="1169" math="0" shadow="0">
      <root>
        <mxCell id="0" />
        <mxCell id="1" parent="0" />
        <mxCell id="eNFMfNxixenZe0FXMCqq-3" value="" style="edgeStyle=orthogonalEdgeStyle;rounded=0;orthogonalLoop=1;jettySize=auto;html=1;" parent="1" source="eNFMfNxixenZe0FXMCqq-1" target="eNFMfNxixenZe0FXMCqq-2" edge="1">
          <mxGeometry relative="1" as="geometry" />
        </mxCell>
        <mxCell id="eNFMfNxixenZe0FXMCqq-1" value="Carnext UI" style="whiteSpace=wrap;html=1;aspect=fixed;fillColor=#dae8fc;strokeColor=#6c8ebf;" parent="1" vertex="1">
          <mxGeometry x="60" y="130" width="80" height="80" as="geometry" />
        </mxCell>
        <mxCell id="eNFMfNxixenZe0FXMCqq-6" value="" style="edgeStyle=orthogonalEdgeStyle;rounded=0;orthogonalLoop=1;jettySize=auto;html=1;" parent="1" source="eNFMfNxixenZe0FXMCqq-2" target="eNFMfNxixenZe0FXMCqq-5" edge="1">
          <mxGeometry relative="1" as="geometry" />
        </mxCell>
        <mxCell id="eNFMfNxixenZe0FXMCqq-2" value="Part-Ex API" style="rounded=0;whiteSpace=wrap;html=1;fillColor=#f5f5f5;fontColor=#333333;strokeColor=#666666;" parent="1" vertex="1">
          <mxGeometry x="310" y="140" width="120" height="60" as="geometry" />
        </mxCell>
        <mxCell id="eNFMfNxixenZe0FXMCqq-4" value="Create appraisal" style="text;html=1;align=center;verticalAlign=middle;resizable=0;points=[];autosize=1;strokeColor=none;fillColor=none;" parent="1" vertex="1">
          <mxGeometry x="170" y="150" width="100" height="20" as="geometry" />
        </mxCell>
        <mxCell id="eNFMfNxixenZe0FXMCqq-5" value="BCA" style="rounded=0;whiteSpace=wrap;html=1;fillColor=#fff2cc;strokeColor=#d6b656;" parent="1" vertex="1">
          <mxGeometry x="630" y="140" width="120" height="60" as="geometry" />
        </mxCell>
        <mxCell id="eNFMfNxixenZe0FXMCqq-7" value="SetValuationRequest + AppraisalId" style="text;html=1;align=center;verticalAlign=middle;resizable=0;points=[];autosize=1;strokeColor=none;fillColor=none;" parent="1" vertex="1">
          <mxGeometry x="430" y="150" width="200" height="20" as="geometry" />
        </mxCell>
        <mxCell id="eNFMfNxixenZe0FXMCqq-15" style="edgeStyle=orthogonalEdgeStyle;rounded=0;orthogonalLoop=1;jettySize=auto;html=1;entryX=1;entryY=0.5;entryDx=0;entryDy=0;entryPerimeter=0;" parent="1" source="eNFMfNxixenZe0FXMCqq-9" target="eNFMfNxixenZe0FXMCqq-14" edge="1">
          <mxGeometry relative="1" as="geometry" />
        </mxCell>
        <mxCell id="eNFMfNxixenZe0FXMCqq-9" value="Part-Ex API" style="rounded=0;whiteSpace=wrap;html=1;fillColor=#f5f5f5;fontColor=#333333;strokeColor=#666666;" parent="1" vertex="1">
          <mxGeometry x="310" y="250" width="120" height="60" as="geometry" />
        </mxCell>
        <mxCell id="eNFMfNxixenZe0FXMCqq-12" style="edgeStyle=orthogonalEdgeStyle;rounded=0;orthogonalLoop=1;jettySize=auto;html=1;entryX=1;entryY=0.5;entryDx=0;entryDy=0;" parent="1" source="eNFMfNxixenZe0FXMCqq-11" target="eNFMfNxixenZe0FXMCqq-9" edge="1">
          <mxGeometry relative="1" as="geometry" />
        </mxCell>
        <mxCell id="eNFMfNxixenZe0FXMCqq-11" value="BCA" style="rounded=0;whiteSpace=wrap;html=1;fillColor=#fff2cc;strokeColor=#d6b656;" parent="1" vertex="1">
          <mxGeometry x="630" y="250" width="120" height="60" as="geometry" />
        </mxCell>
        <mxCell id="eNFMfNxixenZe0FXMCqq-13" value="Price + AppraisalId" style="text;html=1;align=center;verticalAlign=middle;resizable=0;points=[];autosize=1;strokeColor=none;fillColor=none;" parent="1" vertex="1">
          <mxGeometry x="470" y="260" width="120" height="20" as="geometry" />
        </mxCell>
        <mxCell id="eNFMfNxixenZe0FXMCqq-14" value="DB" style="shape=cylinder3;whiteSpace=wrap;html=1;boundedLbl=1;backgroundOutline=1;size=15;fillColor=#f8cecc;strokeColor=#b85450;" parent="1" vertex="1">
          <mxGeometry x="70" y="240" width="60" height="80" as="geometry" />
        </mxCell>
        <mxCell id="eNFMfNxixenZe0FXMCqq-16" value="set price with given appraisalId" style="text;html=1;align=center;verticalAlign=middle;resizable=0;points=[];autosize=1;strokeColor=none;fillColor=none;" parent="1" vertex="1">
          <mxGeometry x="130" y="260" width="180" height="20" as="geometry" />
        </mxCell>
        <mxCell id="eNFMfNxixenZe0FXMCqq-19" value="When the price is ready, BCA will inform Carnext" style="text;html=1;align=center;verticalAlign=middle;resizable=0;points=[];autosize=1;strokeColor=none;fillColor=none;" parent="1" vertex="1">
          <mxGeometry x="550" y="310" width="270" height="20" as="geometry" />
        </mxCell>
        <mxCell id="eNFMfNxixenZe0FXMCqq-21" value="Carnext won&#39;t use the instant price&lt;br&gt;&amp;nbsp;that returns from the BCA API" style="text;html=1;align=center;verticalAlign=middle;resizable=0;points=[];autosize=1;strokeColor=none;fillColor=none;" parent="1" vertex="1">
          <mxGeometry x="590" y="200" width="200" height="30" as="geometry" />
        </mxCell>
        <mxCell id="i3FCQNPJVIs9E5yVUdUv-1" value="It will be a new endpoint" style="text;html=1;align=center;verticalAlign=middle;resizable=0;points=[];autosize=1;strokeColor=none;fillColor=none;" vertex="1" parent="1">
          <mxGeometry x="460" y="280" width="140" height="20" as="geometry" />
        </mxCell>
      </root>
    </mxGraphModel>
  </diagram>
</mxfile>
